<?xml version="1.0"?>
<svg xmlns="http://www.w3.org/2000/svg" xmlns:xlink="http://www.w3.org/1999/xlink" version="1.1" id="Capa_1" x="0px" y="0px" viewBox="0 0 512 512" style="enable-background:new 0 0 512 512;" xml:space="preserve" width="512px" height="512px" class=""><g><path style="fill:#E75B21" d="M398.339,393.244h-56.615v-43.391h56.615c17.928,0,34.321-10.539,41.763-26.85l27.32-59.88  c2.622-5.746,0.258-10.483-0.88-12.253s-4.467-5.886-10.782-5.886h-99.21v-43.391h99.21c19.214,0,36.889,9.649,47.28,25.812  c10.391,16.162,11.834,36.249,3.858,53.729l-27.321,59.881C465.101,372.742,433.213,393.244,398.339,393.244z" data-original="#404B58" class="active-path" data-old_color="#e75b21"/><path style="opacity: 0.1;fill:#D3501A" d="M341.724,349.853v43.391h53.138c0.263-1.343,0.5-2.696,0.68-4.069  l5.169-39.408c-0.789,0.041-1.577,0.087-2.372,0.087h-56.615V349.853z M356.55,201.592v43.391h57.905l5.691-43.391L356.55,201.592  L356.55,201.592z" data-original="#000000" class="" data-old_color="opacity: 0.1#D3501A"/><path style="fill:#E75B21" d="M296.904,479.315H98.143c-6.964,0-12.609-5.645-12.609-12.609v-50.204h223.979v50.204  C309.512,473.67,303.867,479.315,296.904,479.315z" data-original="#404B58" class="active-path" data-old_color="#e75b21"/><rect x="85.53" y="420.22" style="opacity: 0.1;fill:#D3501A" width="223.98" height="42.773" data-original="#000000" class="" data-old_color="opacity: 0.1#D3501A"/><path style="fill:#E75B21" d="M303.393,445.865H91.653c-32.714,0-60.358-24.255-64.612-56.691L0.159,184.228  c-1.443-10.999,7.119-20.757,18.212-20.757h358.304c11.093,0,19.655,9.758,18.212,20.757l-26.882,204.946  C363.751,421.611,336.107,445.865,303.393,445.865z" data-original="#ED718B" class="" data-old_color="#e75b21"/><path style="fill:#FBE096;" d="M376.675,163.471H18.371c-11.093,0-19.655,9.758-18.212,20.757l2.278,17.364H392.61l2.278-17.364  C396.33,173.229,387.768,163.471,376.675,163.471z" data-original="#FBE096" class=""/><g>
	<path style="fill:#E75B21" d="M116.377,266.62c-4.142,0-7.5-3.357-7.5-7.5v-13.84c0-4.143,3.358-7.5,7.5-7.5s7.5,3.357,7.5,7.5   v13.84C123.877,263.262,120.52,266.62,116.377,266.62z" data-original="#404B58" class="active-path" data-old_color="#e75b21"/>
	<path style="fill:#E75B21" d="M197.523,293.056L197.523,293.056c-12.902,0-23.361-10.459-23.361-23.361v-17.113   c0-3.443,2.791-6.233,6.233-6.233h34.256c3.443,0,6.233,2.791,6.233,6.233v17.113C220.884,282.597,210.425,293.056,197.523,293.056   z" data-original="#404B58" class="active-path" data-old_color="#e75b21"/>
	<path style="fill:#E75B21" d="M278.669,266.62c-4.142,0-7.5-3.357-7.5-7.5v-13.84c0-4.143,3.358-7.5,7.5-7.5s7.5,3.357,7.5,7.5   v13.84C286.169,263.262,282.811,266.62,278.669,266.62z" data-original="#404B58" class="active-path" data-old_color="#e75b21"/>
</g><path style="opacity: 0.1;fill:#D3501A" d="M23.647,363.299l3.394,25.875c4.254,32.436,31.898,56.691,64.612,56.691  h211.74c32.714,0,60.358-24.254,64.612-56.691l11.408-86.971C271.962,393.522,179.715,314.281,23.647,363.299z" data-original="#000000" class="" data-old_color="opacity: 0.1#D3501A"/><path style="opacity: 0.1;fill:#D3501A" d="M376.675,163.471h-39.707c11.093,0,19.655,9.758,18.212,20.757  l-26.882,204.946c-4.255,32.436-31.898,56.691-64.612,56.691h39.707c32.714,0,60.358-24.255,64.612-56.691l26.882-204.946  C396.33,173.229,387.768,163.471,376.675,163.471z" data-original="#000000" class="" data-old_color="opacity: 0.1#D3501A"/><g>
	<path style="fill:#E5E5E5" d="M128.853,144.717c-2.35,0-4.665-1.102-6.126-3.166c-2.395-3.38-1.595-8.061,1.785-10.455   c5.961-4.223,9.38-10.833,9.379-18.138c0-7.305-3.418-13.915-9.379-18.137c-9.983-7.071-15.709-18.145-15.709-30.378   s5.726-23.307,15.709-30.378c3.381-2.394,8.061-1.596,10.456,1.785c2.394,3.38,1.595,8.061-1.785,10.455   c-5.961,4.223-9.379,10.833-9.379,18.138c0.001,7.305,3.419,13.915,9.379,18.137c9.983,7.071,15.709,18.144,15.709,30.378   s-5.726,23.307-15.709,30.378C131.866,144.268,130.352,144.717,128.853,144.717z" data-original="#E5E5E5" class=""/>
	<path style="fill:#E5E5E5" d="M197.529,144.717c-2.35,0-4.665-1.102-6.127-3.166c-2.394-3.38-1.595-8.061,1.785-10.455   c5.961-4.223,9.38-10.833,9.379-18.138c0-7.305-3.419-13.915-9.379-18.137c-9.983-7.071-15.709-18.145-15.709-30.378   s5.726-23.307,15.708-30.378c3.381-2.394,8.062-1.596,10.456,1.785c2.394,3.38,1.595,8.061-1.785,10.455   c-5.961,4.223-9.379,10.833-9.379,18.138c0.001,7.305,3.419,13.915,9.379,18.137c9.983,7.071,15.709,18.144,15.709,30.378   s-5.726,23.307-15.709,30.378C200.542,144.268,199.028,144.717,197.529,144.717z" data-original="#E5E5E5" class=""/>
	<path style="fill:#E5E5E5" d="M266.206,144.717c-2.35,0-4.665-1.102-6.126-3.166c-2.395-3.38-1.595-8.061,1.785-10.455   c5.961-4.223,9.38-10.833,9.379-18.138c0-7.305-3.418-13.915-9.379-18.137c-9.983-7.071-15.709-18.145-15.709-30.378   s5.726-23.307,15.708-30.378c3.38-2.394,8.061-1.596,10.456,1.785c2.394,3.38,1.595,8.061-1.785,10.455   c-5.961,4.223-9.379,10.833-9.379,18.138s3.419,13.915,9.379,18.137c9.983,7.071,15.709,18.144,15.709,30.378   s-5.726,23.307-15.708,30.378C269.218,144.268,267.705,144.717,266.206,144.717z" data-original="#E5E5E5" class=""/>
</g></g> </svg>
