<?xml version="1.0"?>
<svg xmlns="http://www.w3.org/2000/svg" xmlns:xlink="http://www.w3.org/1999/xlink" version="1.1" id="Capa_1" x="0px" y="0px" viewBox="0 0 512 512" style="enable-background:new 0 0 512 512;" xml:space="preserve" width="512px" height="512px" class=""><g><path style="fill:#E75B21" d="M368.33,374.657L368.33,374.657c-54.286,0-98.295,44.008-98.295,98.295v29.157h34.055l7.726-3.905  l7.726,3.905h27.089l21.699-14.226l21.699,14.226h27.089l5.452-3.905l10,3.905h34.055v-29.157  C466.625,418.666,422.616,374.657,368.33,374.657z" data-original="#DA5B65" class="" data-old_color="#e75b21"/><path style="fill:#EFEDEE" d="M143.67,374.657L143.67,374.657c-54.286,0-98.295,44.008-98.295,98.295v29.157h34.056l5.408-6.198  l10.044,6.198h27.089l21.699-14.226l21.699,14.226h27.089l7.726-6.198l7.726,6.198h34.056v-29.157  C241.964,418.666,197.956,374.657,143.67,374.657z" data-original="#EFEDEE" class=""/><g>
	<path style="fill:#D4D2D3;" d="M79.43,502.109v-44.986c0-4.267,3.458-7.726,7.726-7.726s7.726,3.459,7.726,7.726v44.986H79.43z" data-original="#D4D2D3" class=""/>
	<path style="fill:#D4D2D3;" d="M192.456,502.109v-44.986c0-4.267,3.458-7.726,7.726-7.726c4.268,0,7.726,3.459,7.726,7.726v44.986   H192.456z" data-original="#D4D2D3" class=""/>
</g><polygon style="fill:#E75B21" points="121.97,502.109 128.172,455.551 159.167,455.551 165.369,502.109 " data-original="#00A5C6" class="" data-old_color="#e75b21"/><path style="fill:#EFEDEE" d="M121.97,407.985v32.385c0,11.984,9.715,21.699,21.699,21.699l0,0  c11.984,0,21.699-9.715,21.699-21.699v-32.385H121.97z" data-original="#49C3E0" class="active-path" data-old_color="#E75B21"/><g>
	<path style="fill:#C54B18" d="M304.09,502.109v-44.986c0-4.267,3.458-7.726,7.726-7.726c4.268,0,7.726,3.459,7.726,7.726v44.986   H304.09z" data-original="#C0344A" class="" data-old_color="#B74617"/>
	<path style="fill:#C54B18" d="M417.117,502.109v-44.986c0-4.267,3.458-7.726,7.726-7.726c4.268,0,7.726,3.459,7.726,7.726v44.986   H417.117z" data-original="#C0344A" class="" data-old_color="#B74617"/>
</g><polygon style="fill:#D4D2D3;" points="346.631,502.109 352.832,455.551 383.828,455.551 390.029,502.109 " data-original="#D4D2D3" class=""/><path style="fill:#EFEDEE" d="M346.631,407.985v32.385c0,11.984,9.715,21.699,21.699,21.699l0,0  c11.984,0,21.699-9.715,21.699-21.699v-32.385H346.631z" data-original="#EFEDEE" class=""/><path style="fill:#C76D5F;" d="M231.87,319.242c0-72.802,61.215-132.03,136.461-132.03c75.244,0,136.46,59.228,136.46,132.03H231.87  z" data-original="#C76D5F" class=""/><path style="fill:#AF4E42;" d="M368.33,187.212c-7.002,0-13.883,0.515-20.604,1.504c65.503,9.639,115.856,64.5,115.856,130.526  h41.207C504.791,246.44,443.574,187.212,368.33,187.212z" data-original="#AF4E42" class=""/><path style="fill:#FFC4B0;" d="M253.46,318.718c0.233-48.114,50.424-80.226,94.244-60.356c3.31,1.501,6.31,3.061,8.932,4.544  c7.263,4.107,16.128,4.107,23.39,0c2.623-1.483,5.622-3.043,8.933-4.544c43.82-19.87,94.011,12.243,94.244,60.356  c0.001,0.174,0.001,0.349,0.001,0.523c0,60.995-51.43,110.442-114.872,110.442s-114.872-49.447-114.872-110.442  C253.458,319.068,253.459,318.893,253.46,318.718z" data-original="#FFC4B0" class=""/><path style="fill:#E6B09C;" d="M483.203,290.445c-2.104,0-4.152,0.232-6.128,0.659c-13.041-28.011-44.924-44.448-76.172-36.864  c28.337,6.846,51.235,32.018,51.393,64.478c0.001,0.174,0.001,0.349,0.001,0.524c0,55.956-43.286,102.187-99.42,109.444  c5.055,0.653,10.211,0.998,15.453,0.998c53.18,0,97.911-34.746,110.995-81.912c1.269,0.171,2.562,0.268,3.878,0.268  c15.904,0,28.797-12.893,28.797-28.798C512,303.338,499.107,290.445,483.203,290.445z" data-original="#E6B09C" class=""/><path style="fill:#333E40;" d="M269.444,319.242H7.209c0-72.802,21.588-132.03,136.461-132.03  c79.188,0,115.089-14.238,115.089-14.238S295.735,251.177,269.444,319.242z" data-original="#333E40" class=""/><path style="fill:#283234;" d="M48.416,319.242c0-57.921,11.679-107.898,63.549-130.291C24.712,199.197,7.209,253.716,7.209,319.242  H48.416z" data-original="#283234" class=""/><circle style="fill:#E6B09C;" cx="258.545" cy="319.243" r="28.798" data-original="#E6B09C" class=""/><path style="fill:#FFC4B0;" d="M28.799,318.718c0.233-48.114,50.424-80.226,94.244-60.356c3.31,1.501,6.31,3.061,8.932,4.544  c7.263,4.107,16.127,4.107,23.39,0c2.623-1.483,5.622-3.043,8.933-4.544c43.82-19.87,94.011,12.243,94.244,60.356  c0.001,0.174,0.001,0.349,0.001,0.523c0,60.995-51.43,110.442-114.872,110.442S28.798,380.238,28.798,319.242  C28.798,319.068,28.798,318.893,28.799,318.718z" data-original="#FFC4B0" class=""/><path style="fill:#E6B09C;" d="M59.702,319.242c0-0.175,0-0.349,0.001-0.524c0.157-32.46,23.054-57.632,51.393-64.478  c-31.247-7.585-63.132,8.853-76.172,36.864c-1.975-0.429-4.024-0.659-6.128-0.659C12.893,290.445,0,303.338,0,319.242  c0,15.904,12.893,28.798,28.797,28.798c1.316,0,2.608-0.097,3.878-0.268c13.082,47.166,57.815,81.912,110.995,81.912  c5.241,0,10.398-0.344,15.453-0.998C102.988,421.428,59.702,375.198,59.702,319.242z" data-original="#E6B09C" class=""/><g>
	<path style="fill:#3A484A;" d="M424.435,331.645c-4.268,0-7.726-3.459-7.726-7.726v-9.249c0-4.267,3.458-7.726,7.726-7.726   c4.268,0,7.726,3.459,7.726,7.726v9.249C432.161,328.186,428.703,331.645,424.435,331.645z" data-original="#3A484A"/>
	<path style="fill:#3A484A;" d="M313.175,331.645c-4.268,0-7.726-3.459-7.726-7.726v-9.249c0-4.267,3.458-7.726,7.726-7.726   c4.268,0,7.726,3.459,7.726,7.726v9.249C320.901,328.186,317.443,331.645,313.175,331.645z" data-original="#3A484A"/>
	<path style="fill:#3A484A;" d="M368.331,338.48c-8.269,0-16.038-3.461-21.314-9.497c-2.809-3.213-2.481-8.094,0.731-10.902   c3.213-2.807,8.093-2.482,10.902,0.731c2.342,2.678,5.87,4.215,9.681,4.215c3.811,0,7.338-1.536,9.68-4.214   c2.81-3.214,7.688-3.541,10.902-0.732c3.213,2.808,3.542,7.689,0.733,10.902C384.37,335.018,376.6,338.48,368.331,338.48z" data-original="#3A484A"/>
</g><path style="fill:#EFEDEE" d="M73.59,9.891h101.702c31.955,0,57.859,25.905,57.859,57.859l0,0  c0,31.955-25.905,57.859-57.859,57.859h-25.663l13.494,30.538c1.901,4.3-3.001,8.412-6.905,5.795l-54.189-36.332H73.59  c-31.955,0-57.859-25.905-57.859-57.859l0,0C15.731,35.795,41.635,9.891,73.59,9.891z" data-original="#3AC7B4" class="" data-old_color="#E75B21"/><path style="fill:#EFEDEE" d="M438.41,9.891H336.708c-31.955,0-57.859,25.905-57.859,57.859l0,0  c0,31.955,25.905,57.859,57.859,57.859h25.663l-13.494,30.538c-1.901,4.3,3.001,8.412,6.905,5.795l54.189-36.332h28.44  c31.955,0,57.859-25.905,57.859-57.859l0,0C496.269,35.795,470.365,9.891,438.41,9.891z" data-original="#49C3E0" class="active-path" data-old_color="#E75B21"/><g>
	<path style="fill:#3A484A;" d="M200.885,331.645c-4.268,0-7.726-3.459-7.726-7.726v-9.249c0-4.267,3.458-7.726,7.726-7.726   c4.268,0,7.726,3.459,7.726,7.726v9.249C208.612,328.186,205.153,331.645,200.885,331.645z" data-original="#3A484A"/>
	<path style="fill:#3A484A;" d="M88.596,331.645c-4.268,0-7.726-3.459-7.726-7.726v-9.249c0-4.267,3.458-7.726,7.726-7.726   c4.268,0,7.726,3.459,7.726,7.726v9.249C96.322,328.186,92.864,331.645,88.596,331.645z" data-original="#3A484A"/>
	<path style="fill:#3A484A;" d="M143.67,338.48c-8.269,0-16.038-3.461-21.314-9.497c-2.809-3.213-2.481-8.094,0.731-10.902   c3.213-2.807,8.094-2.482,10.902,0.731c2.342,2.678,5.87,4.215,9.681,4.215c3.811,0,7.339-1.537,9.681-4.215   c2.807-3.213,7.689-3.541,10.902-0.731c3.212,2.808,3.541,7.689,0.731,10.902C159.708,335.019,151.939,338.48,143.67,338.48z" data-original="#3A484A"/>
</g></g> </svg>
