<?xml version="1.0"?>
<svg xmlns="http://www.w3.org/2000/svg" xmlns:xlink="http://www.w3.org/1999/xlink" version="1.1" id="Capa_1" x="0px" y="0px" viewBox="0 0 512 512" style="enable-background:new 0 0 512 512;" xml:space="preserve" width="512px" height="512px" class=""><g><path style="fill:#56B4DD;" d="M57.106,26.325c-35.099,35.099-35.099,92.007,0,127.106c60.598,60.598,141.545,84.638,176.645,49.538  c35.099-35.099,11.06-116.047-49.538-176.645C149.113-8.775,92.205-8.775,57.106,26.325z" data-original="#56B4DD" class=""/><path style="opacity:0.1;enable-background:new    ;" d="M180.201,95.068c-25.054-25.054-65.675-25.054-90.729,0  c-21.424,21.424-24.511,54.224-9.295,78.946c50.48,40.092,108.429,56.165,142.26,37.44  C236.374,183.204,218.566,133.432,180.201,95.068z" data-original="#000000" class=""/><path style="opacity:0.1;enable-background:new    ;" d="M244.605,123.323H37.22c4.387,10.959,11.01,21.232,19.885,30.108  c60.598,60.598,141.545,84.638,176.645,49.538C251.461,185.259,254.107,155.874,244.605,123.323z" data-original="#000000" class=""/><path style="fill:#56B4DD;" d="M454.894,26.325c35.099,35.099,35.099,92.007,0,127.106  c-60.598,60.598-141.545,84.638-176.645,49.538C243.15,167.87,267.19,86.923,327.788,26.325  C362.887-8.775,419.795-8.775,454.894,26.325z" data-original="#56B4DD" class=""/><path style="opacity:0.1;enable-background:new    ;" d="M331.799,95.068c25.054-25.054,65.675-25.054,90.729,0  c21.424,21.424,24.511,54.224,9.295,78.946c-50.48,40.092-108.429,56.165-142.26,37.44  C275.626,183.204,293.434,133.432,331.799,95.068z" data-original="#000000" class=""/><path style="opacity:0.1;enable-background:new    ;" d="M267.395,123.323H474.78c-4.387,10.959-11.009,21.232-19.885,30.108  c-60.598,60.598-141.545,84.638-176.645,49.538C260.539,185.259,257.893,155.874,267.395,123.323z" data-original="#000000" class=""/><path style="fill:#E75B21" d="M482.941,239.554H29.059c-13.186,0-23.875-10.689-23.875-23.875v-46.174  c0-13.186,10.689-23.875,23.875-23.875h453.882c13.186,0,23.875,10.689,23.875,23.875v46.174  C506.816,228.864,496.127,239.554,482.941,239.554z" data-original="#F3DE6A" class="active-path" data-old_color="#e75b21"/><rect x="207.06" y="145.63" style="fill:#56B4DD;" width="97.89" height="93.92" data-original="#56B4DD" class=""/><rect x="207.06" y="145.63" style="opacity:0.2;fill:#FFFFFF;enable-background:new    ;" width="97.89" height="93.92" data-original="#FFFFFF" class=""/><path style="opacity:0.1;enable-background:new    ;" d="M54.917,215.678v-46.174c0-13.186,10.689-23.875,23.875-23.875H29.059  c-13.186,0-23.875,10.689-23.875,23.875v46.174c0,13.186,10.689,23.875,23.875,23.875h49.733  C65.606,239.554,54.917,228.864,54.917,215.678z" data-original="#000000" class=""/><path style="fill:#E75B21" d="M474.8,239.554H37.2v248.115C37.2,501.107,48.093,512,61.531,512h388.938  c13.438,0,24.331-10.893,24.331-24.331V239.554z" data-original="#F5A85B" class="" data-old_color="#e75b21"/><path style="opacity:0.4;fill:#FFFFFF;enable-background:new    ;" d="M158.213,347.916c-10.752-4.831-27.795-11.183-47.891-13.983  c-2.799-20.096-9.152-37.139-13.982-47.891c-2.39-5.319-9.957-5.319-12.347,0c-4.831,10.752-11.183,27.795-13.983,47.891  c-12.341,1.719-23.522,4.779-32.811,8.003v24.307c9.288,3.224,20.47,6.284,32.811,8.003c2.799,20.095,9.152,37.138,13.983,47.89  c2.39,5.319,9.957,5.319,12.347,0c4.831-10.752,11.183-27.795,13.982-47.89c20.096-2.799,37.139-9.152,47.891-13.983  C163.533,357.873,163.533,350.306,158.213,347.916z M455.264,383.048c-2.799-20.095-9.152-37.139-13.983-47.891  c-2.39-5.319-9.957-5.319-12.347,0c-4.831,10.752-11.183,27.795-13.983,47.891c-20.095,2.799-37.139,9.152-47.891,13.983  c-5.319,2.39-5.32,9.957,0,12.347c10.752,4.831,27.795,11.184,47.891,13.983c2.799,20.095,9.152,37.138,13.983,47.891  c2.39,5.319,9.957,5.319,12.347,0c4.831-10.752,11.183-27.795,13.983-47.891c6.922-0.964,13.47-2.355,19.536-3.956v-32.401  C468.735,385.403,462.186,384.012,455.264,383.048z M415.021,245.727c2.66-1.195,3.989-3.684,3.989-6.174H274.937  c0,2.489,1.33,4.979,3.99,6.174c10.752,4.831,27.795,11.184,47.891,13.983c2.799,20.095,9.152,37.138,13.982,47.89  c2.39,5.319,9.957,5.319,12.347,0c4.831-10.752,11.183-27.795,13.983-47.89C387.225,256.911,404.268,250.558,415.021,245.727z" data-original="#FFFFFF" class=""/><rect x="207.06" y="239.55" style="fill:#56B4DD;" width="97.89" height="272.45" data-original="#56B4DD" class=""/><path style="opacity:0.1;enable-background:new    ;" d="M474.8,292.1v-52.546H37.2v248.115C37.2,501.107,48.093,512,61.531,512  h40.794c-13.438,0-24.331-10.893-24.331-24.331V292.1H474.8z" data-original="#000000" class=""/><g>
	<path style="fill:#4A5058" d="M170.034,199.653c-4.142,0-7.5-3.358-7.5-7.5v-14.27c0-4.142,3.358-7.5,7.5-7.5s7.5,3.358,7.5,7.5   v14.27C177.534,196.295,174.176,199.653,170.034,199.653z" data-original="#4A5058" class=""/>
	<path style="fill:#4A5058" d="M341.966,199.653c-4.143,0-7.5-3.358-7.5-7.5v-14.27c0-4.142,3.357-7.5,7.5-7.5s7.5,3.358,7.5,7.5   v14.27C349.466,196.295,346.108,199.653,341.966,199.653z" data-original="#4A5058" class=""/>
	<path style="fill:#4A5058" d="M256,210.611c-10.854,0-21.175-4.701-28.319-12.897c-2.721-3.123-2.396-7.86,0.727-10.582   c3.123-2.721,7.859-2.396,10.582,0.727c4.294,4.927,10.494,7.753,17.01,7.753c6.517,0,12.717-2.826,17.01-7.752   c2.721-3.124,7.457-3.448,10.582-0.727c3.122,2.721,3.448,7.459,0.727,10.582C277.176,205.91,266.853,210.611,256,210.611z" data-original="#4A5058" class=""/>
</g></g> </svg>
