<?xml version="1.0"?>
<svg xmlns="http://www.w3.org/2000/svg" xmlns:xlink="http://www.w3.org/1999/xlink" version="1.1" id="Capa_1" x="0px" y="0px" viewBox="0 0 511.998 511.998" style="enable-background:new 0 0 511.998 511.998;" xml:space="preserve" width="512px" height="512px" class=""><g><polygon style="fill:#EFEDEE;" points="376.118,332.642 297.104,349.51 297.104,415.316 376.118,441.204 455.131,415.316   455.131,349.51 " data-original="#EFEDEE" class=""/><polygon style="fill:#D4D2D3;" points="333.615,349.512 297.104,349.512 297.104,415.316 333.615,427.279 " data-original="#D4D2D3" class=""/><rect x="297.102" y="415.317" style="fill:#E75B21" width="158.03" height="96.095" data-original="#DA5B65" class="" data-old_color="#DA5B65"/><rect x="297.102" y="415.317" style="fill:#C94E1C" width="36.512" height="96.095" data-original="#C0344A" class="" data-old_color="#E75B21"/><circle style="fill:#3A484A;" cx="415.665" cy="382.413" r="12.059" data-original="#3A484A"/><polygon style="fill:#EFEDEE;" points="135.877,332.642 214.891,349.51 214.891,415.316 135.877,441.204 56.863,415.316   56.863,349.51 " data-original="#EFEDEE" class=""/><circle style="fill:#3A484A;" cx="96.33" cy="382.413" r="12.059" data-original="#3A484A"/><rect x="56.863" y="415.317" style="fill:#E75B21" width="158.03" height="96.095" data-original="#49C3E0" class="active-path" data-old_color="#49C3E0"/><g>
	<path style="fill:#FFC4B0;" d="M508.805,235.289c-5.945-9.148-18.181-11.744-27.328-5.799l-26.343,17.12v-70.612   c0-10.91-8.844-19.754-19.754-19.754l0,0c-10.91,0-19.754,8.844-19.754,19.754c0-10.91-8.844-19.754-19.754-19.754l0,0   c-10.91,0-19.754,8.844-19.754,19.754c0-10.91-8.844-19.754-19.754-19.754l0,0c-10.91,0-19.754,8.844-19.754,19.754   c0-10.91-8.844-19.754-19.754-19.754l0,0c-10.91,0-19.754,8.844-19.754,19.754v173.511h158.033v-55.78l0,0l47.871-31.111   C512.153,256.672,514.75,244.437,508.805,235.289z" data-original="#FFC4B0"/>
	<path style="fill:#FFC4B0;" d="M195.139,156.243L195.139,156.243c-10.91,0-19.754,8.844-19.754,19.754   c0-10.91-8.844-19.754-19.754-19.754l0,0c-10.91,0-19.754,8.844-19.754,19.754c0-10.91-8.844-19.754-19.754-19.754l0,0   c-10.91,0-19.754,8.844-19.754,19.754c0-10.91-8.844-19.754-19.754-19.754l0,0c-10.91,0-19.754,8.844-19.754,19.754v70.612   l-26.343-17.12c-9.148-5.945-21.382-3.348-27.328,5.799c-5.945,9.148-3.349,21.382,5.799,27.328l47.871,31.111l0,0v55.78h158.03   v-173.51C214.893,165.088,206.049,156.243,195.139,156.243z" data-original="#FFC4B0"/>
</g><g>
	<path style="fill:#FFCD38;" d="M249.018,56.286c-4.268,0-7.726-3.459-7.726-7.726V8.311c0-4.267,3.458-7.726,7.726-7.726   c4.268,0,7.726,3.459,7.726,7.726V48.56C256.744,52.827,253.285,56.286,249.018,56.286z" data-original="#FFCD38"/>
	<path style="fill:#FFCD38;" d="M331.015,67.32c-1.25,0-2.516-0.304-3.69-0.944c-3.747-2.042-5.129-6.734-3.087-10.481   l19.257-35.341c2.042-3.747,6.735-5.129,10.482-3.087s5.129,6.734,3.087,10.481l-19.257,35.341   C336.405,65.861,333.753,67.32,331.015,67.32z" data-original="#FFCD38"/>
	<path style="fill:#FFCD38;" d="M395.129,100.821c-2.356,0-4.682-1.073-6.2-3.107c-2.552-3.42-1.847-8.262,1.573-10.813   l32.261-24.065c3.419-2.551,8.262-1.847,10.813,1.573c2.552,3.42,1.847,8.262-1.573,10.813l-32.261,24.065   C398.356,100.321,396.735,100.821,395.129,100.821z" data-original="#FFCD38"/>
	<path style="fill:#FFCD38;" d="M167.021,67.32c-2.737,0-5.389-1.458-6.792-4.031l-19.258-35.341   c-2.041-3.747-0.659-8.439,3.087-10.481c3.749-2.042,8.439-0.659,10.482,3.087l19.258,35.341c2.041,3.747,0.659,8.439-3.087,10.481   C169.536,67.016,168.269,67.32,167.021,67.32z" data-original="#FFCD38"/>
	<path style="fill:#FFCD38;" d="M102.907,100.821c-1.607,0-3.228-0.5-4.614-1.534l-32.26-24.065   c-3.42-2.552-4.125-7.393-1.573-10.813c2.553-3.42,7.394-4.125,10.813-1.573l32.26,24.065c3.42,2.552,4.125,7.393,1.573,10.813   C107.589,99.747,105.263,100.821,102.907,100.821z" data-original="#FFCD38"/>
</g><polygon style="fill:#D4D2D3;" points="214.893,349.512 178.383,349.512 178.383,415.316 214.893,427.279 " data-original="#D4D2D3" class=""/><rect x="178.384" y="415.317" style="fill:#C94E1C" width="36.512" height="96.095" data-original="#00A5C6" class="" data-old_color="#E75B21"/><g>
	<path style="fill:#E6B09C" d="M195.139,156.243L195.139,156.243c-7.078,0-13.269,3.734-16.757,9.329v183.936h36.511V175.997   C214.893,165.088,206.049,156.243,195.139,156.243z" data-original="#E6B09C" class=""/>
	<path style="fill:#E6B09C" d="M316.858,156.243L316.858,156.243c7.078,0,13.269,3.734,16.757,9.329v183.936h-36.512V175.997   C297.104,165.088,305.948,156.243,316.858,156.243z" data-original="#E6B09C" class=""/>
</g></g> </svg>
