<?xml version="1.0"?>
<svg xmlns="http://www.w3.org/2000/svg" xmlns:xlink="http://www.w3.org/1999/xlink" version="1.1" id="Capa_1" x="0px" y="0px" viewBox="0 0 512 512" style="enable-background:new 0 0 512 512;" xml:space="preserve" width="512px" height="512px" class=""><g><path style="fill:#FDA75F;" d="M313.746,394.105l110.769,40.317c17.439,6.347,36.721-2.644,43.069-20.083l40.316-110.77  c6.347-17.439-2.644-36.721-20.083-43.069l-110.769-40.317c-17.439-6.347-36.721,2.644-43.069,20.083l-40.317,110.769  C287.315,368.475,296.307,387.758,313.746,394.105z" data-original="#FDA75F" class=""/><path style="opacity:0.1;enable-background:new    ;" d="M377.048,220.184c-17.439-6.347-36.721,2.645-43.069,20.084  l-40.317,110.769c-6.347,17.439,2.644,36.721,20.083,43.069l110.769,40.316c12.038,4.381,24.951,1.452,33.885-6.517V285.643  c4.004-3.573,7.22-8.144,9.184-13.542l6.095-16.746L377.048,220.184z" data-original="#000000" class=""/><path style="fill:#FBE096;" d="M309.739,223.6l110.769,40.317c17.439,6.347,36.721-2.644,43.069-20.083l40.317-110.769  c6.347-17.439-2.644-36.721-20.083-43.069l-110.77-40.317c-17.439-6.347-36.721,2.644-43.069,20.083l-40.317,110.769  C283.308,197.97,292.3,217.252,309.739,223.6z" data-original="#FBE096"/><path style="opacity:0.1;enable-background:new    ;" d="M373.041,49.679c-17.439-6.347-36.721,2.644-43.069,20.083l-40.317,110.769  c-6.347,17.439,2.644,36.721,20.083,43.068l110.769,40.317c12.037,4.381,24.951,1.452,33.885-6.517V79.288L373.041,49.679z" data-original="#000000" class=""/><path style="fill:#E75B21" d="M366.934,512H28.294c-14.486,0-26.23-11.743-26.23-26.23V26.23C2.064,11.743,13.808,0,28.294,0  h338.64c35.368,0,64.04,28.672,64.04,64.04v383.92C430.974,483.328,402.302,512,366.934,512z" data-original="#ED718B" class="active-path" data-old_color="#ED718B"/><rect x="2.064" y="196.84" style="opacity:0.1;enable-background:new    ;" width="428.91" height="180.63" data-original="#000000" class=""/><rect x="304.67" style="opacity:0.1;enable-background:new    ;" width="59.12" height="512" data-original="#000000" class=""/><rect x="287.62" style="fill:#404B58" width="62.12" height="512" data-original="#404B58" class=""/><path style="opacity:0.1;enable-background:new    ;" d="M28.294,0C13.808,0,2.064,11.743,2.064,26.23v459.54  c0,14.486,11.743,26.23,26.23,26.23H49V0H28.294z" data-original="#000000" class=""/><g>
	<path style="fill:#404B58" d="M98.763,286.043c-4.142,0-7.5-3.358-7.5-7.5v-11.862c0-4.143,3.358-7.5,7.5-7.5s7.5,3.357,7.5,7.5   v11.862C106.263,282.685,102.905,286.043,98.763,286.043z" data-original="#404B58" class=""/>
	<path style="fill:#404B58" d="M168.31,307.628L168.31,307.628c-11.058,0-20.022-8.964-20.022-20.022v-14.667   c0-2.951,2.392-5.342,5.342-5.342h29.36c2.951,0,5.342,2.392,5.342,5.342v14.667C188.332,298.664,179.368,307.628,168.31,307.628z" data-original="#404B58" class=""/>
	<path style="fill:#404B58" d="M237.857,286.043c-4.142,0-7.5-3.358-7.5-7.5v-11.862c0-4.143,3.358-7.5,7.5-7.5s7.5,3.357,7.5,7.5   v11.862C245.357,282.685,241.999,286.043,237.857,286.043z" data-original="#404B58" class=""/>
</g></g> </svg>
