<?xml version="1.0"?>
<svg xmlns="http://www.w3.org/2000/svg" xmlns:xlink="http://www.w3.org/1999/xlink" version="1.1" id="Capa_1" x="0px" y="0px" viewBox="0 0 512 512" style="enable-background:new 0 0 512 512;" xml:space="preserve" width="512px" height="512px" class=""><g><g>
	<path style="fill:#3A484A;" d="M256,188.507c-4.268,0-7.726-3.459-7.726-7.726V54.486c0-4.267,3.458-7.726,7.726-7.726   c4.268,0,7.726,3.459,7.726,7.726V180.78C263.726,185.047,260.268,188.507,256,188.507z" data-original="#3A484A" class=""/>
	<path style="fill:#3A484A;" d="M309.189,210.538c-1.977,0-3.955-0.754-5.464-2.263c-3.017-3.017-3.017-7.91,0-10.927l89.303-89.303   c3.018-3.017,7.91-3.017,10.927,0s3.017,7.91,0,10.927l-89.303,89.303C313.144,209.783,311.166,210.538,309.189,210.538z" data-original="#3A484A" class=""/>
	<path style="fill:#3A484A;" d="M457.514,263.726H331.221c-4.268,0-7.726-3.459-7.726-7.726c0-4.267,3.458-7.726,7.726-7.726   h126.293c4.268,0,7.726,3.459,7.726,7.726C465.24,260.267,461.782,263.726,457.514,263.726z" data-original="#3A484A" class=""/>
	<path style="fill:#3A484A;" d="M398.492,406.218c-1.978,0-3.955-0.754-5.464-2.263l-89.303-89.303   c-3.017-3.017-3.017-7.91,0-10.927c3.019-3.017,7.911-3.017,10.927,0l89.303,89.303c3.017,3.017,3.017,7.91,0,10.927   C402.446,405.464,400.468,406.218,398.492,406.218z" data-original="#3A484A" class=""/>
	<path style="fill:#3A484A;" d="M256,465.24c-4.268,0-7.726-3.459-7.726-7.726V331.221c0-4.267,3.458-7.726,7.726-7.726   c4.268,0,7.726,3.459,7.726,7.726v126.293C263.726,461.781,260.268,465.24,256,465.24z" data-original="#3A484A" class=""/>
	<path style="fill:#3A484A;" d="M113.508,406.218c-1.977,0-3.955-0.754-5.464-2.263c-3.017-3.017-3.017-7.91,0-10.927l89.303-89.303   c3.018-3.017,7.91-3.017,10.927,0c3.017,3.017,3.017,7.91,0,10.927l-89.303,89.303   C117.462,405.464,115.485,406.218,113.508,406.218z" data-original="#3A484A" class=""/>
	<path style="fill:#3A484A;" d="M180.779,263.726H54.486c-4.268,0-7.726-3.459-7.726-7.726c0-4.267,3.458-7.726,7.726-7.726H180.78   c4.268,0,7.726,3.459,7.726,7.726C188.507,260.267,185.047,263.726,180.779,263.726z" data-original="#3A484A" class=""/>
	<path style="fill:#3A484A;" d="M202.811,210.538c-1.978,0-3.955-0.754-5.464-2.263l-89.303-89.303   c-3.017-3.017-3.017-7.91,0-10.927c3.018-3.017,7.91-3.017,10.927,0l89.303,89.303c3.017,3.017,3.017,7.91,0,10.927   C206.766,209.783,204.788,210.538,202.811,210.538z" data-original="#3A484A" class=""/>
</g><circle style="fill:#49C3E0;" cx="256" cy="54.486" r="54.486" data-original="#49C3E0" class=""/><path style="fill:#00A5C6;" d="M276.604,88.368c-30.092,0-54.486-24.395-54.486-54.486c0-9.753,2.575-18.9,7.064-26.819  c-16.515,9.36-27.668,27.084-27.668,47.422c0,30.092,24.395,54.486,54.486,54.486c20.339,0,38.062-11.153,47.422-27.667  C295.503,85.793,286.356,88.368,276.604,88.368z" data-original="#00A5C6"/><circle style="fill:#E75B21" cx="398.495" cy="113.505" r="54.486" data-original="#FFCD38" class="" data-old_color="#FFCD38"/><path style="fill:#D1511D" d="M380.568,131.432c-17.709-17.708-20.664-44.568-8.898-65.349c-4.189,2.371-8.136,5.328-11.706,8.898  c-21.278,21.278-21.278,55.777,0,77.054c21.278,21.278,55.776,21.278,77.054,0c3.57-3.57,6.526-7.517,8.898-11.706  C425.136,152.096,398.277,149.14,380.568,131.432z" data-original="#E7B835" class="" data-old_color="#E75B21"/><circle style="fill:#FF9AC8;" cx="457.514" cy="256" r="54.486" data-original="#FF9AC8" class=""/><path style="fill:#E86FA8;" d="M478.117,289.883c-30.092,0-54.486-24.395-54.486-54.486c0-9.753,2.575-18.9,7.064-26.819  c-16.515,9.36-27.668,27.084-27.668,47.422c0,30.092,24.395,54.486,54.486,54.486c20.339,0,38.062-11.153,47.422-27.667  C497.017,287.307,487.871,289.883,478.117,289.883z" data-original="#E86FA8" class=""/><circle style="fill:#E75B21" cx="398.495" cy="398.495" r="54.486" data-original="#FF8C57" class="" data-old_color="#FF8C57"/><path style="fill:#D1511D" d="M380.568,416.416c-17.709-17.708-20.664-44.568-8.898-65.349c-4.189,2.373-8.136,5.328-11.706,8.898  c-21.278,21.278-21.278,55.777,0,77.054c21.278,21.278,55.776,21.278,77.054,0c3.57-3.57,6.526-7.517,8.898-11.706  C425.136,437.08,398.277,434.124,380.568,416.416z" data-original="#EC6A34" class="" data-old_color="#E75B21"/><circle style="fill:#3AC7B4;" cx="256" cy="457.514" r="54.486" data-original="#3AC7B4" class=""/><path style="fill:#00AD94;" d="M276.604,491.396c-30.092,0-54.486-24.395-54.486-54.486c0-9.753,2.575-18.9,7.064-26.819  c-16.515,9.36-27.668,27.084-27.668,47.422C201.514,487.605,225.908,512,256,512c20.339,0,38.062-11.152,47.422-27.667  C295.503,488.822,286.356,491.396,276.604,491.396z" data-original="#00AD94" class=""/><circle style="fill:#B9A8FF;" cx="113.505" cy="398.495" r="54.486" data-original="#B9A8FF" class=""/><path style="fill:#A394E0;" d="M95.584,416.416c-17.709-17.708-20.664-44.568-8.898-65.349c-4.189,2.373-8.136,5.328-11.706,8.898  c-21.278,21.278-21.278,55.777,0,77.054c21.278,21.278,55.777,21.278,77.054,0c3.57-3.57,6.526-7.517,8.898-11.706  C140.152,437.08,113.293,434.124,95.584,416.416z" data-original="#A394E0"/><circle style="fill:#E75B21" cx="54.486" cy="256" r="54.486" data-original="#FFC4B0" class="" data-old_color="#FFC4B0"/><path style="fill:#D1511D" d="M75.09,289.883c-30.092,0-54.486-24.395-54.486-54.486c0-9.753,2.575-18.9,7.064-26.819  C11.152,217.938,0,235.661,0,256c0,30.092,24.394,54.486,54.486,54.486c20.339,0,38.062-11.152,47.422-27.667  C93.989,287.307,84.843,289.883,75.09,289.883z" data-original="#E6B09C" class="active-path" data-old_color="#E6B09C"/><circle style="fill:#EFEDEE;" cx="113.505" cy="113.505" r="54.486" data-original="#EFEDEE"/><path style="fill:#D4D2D3;" d="M95.584,131.432c-17.709-17.708-20.664-44.568-8.898-65.349c-4.189,2.371-8.136,5.328-11.706,8.898  c-21.278,21.278-21.278,55.777,0,77.054c21.278,21.278,55.777,21.278,77.054,0c3.57-3.57,6.526-7.517,8.898-11.706  C140.152,152.096,113.293,149.14,95.584,131.432z" data-original="#D4D2D3"/><circle style="fill:#E75B21" cx="256" cy="256" r="95.848" data-original="#DA5B65" class="" data-old_color="#DA5B65"/><path style="fill:#CC4F1C" d="M271.453,337.429c-52.937,0-95.851-42.914-95.851-95.851c0-23.859,8.719-45.679,23.143-62.455  c-23.426,17.475-38.596,45.404-38.596,76.877c0,52.937,42.914,95.851,95.851,95.851c29.079,0,55.13-12.951,72.708-33.396  C312.732,330.373,292.917,337.429,271.453,337.429z" data-original="#C0344A" class="" data-old_color="#E75B21"/><g>
	<path style="fill:#3A484A;" d="M209.921,265.67c-4.268,0-7.726-3.459-7.726-7.726v-8.339c0-4.267,3.458-7.726,7.726-7.726   s7.726,3.459,7.726,7.726v8.339C217.647,262.211,214.188,265.67,209.921,265.67z" data-original="#3A484A" class=""/>
	<path style="fill:#3A484A;" d="M302.079,265.67c-4.268,0-7.726-3.459-7.726-7.726v-8.339c0-4.267,3.458-7.726,7.726-7.726   c4.268,0,7.726,3.459,7.726,7.726v8.339C309.805,262.211,306.347,265.67,302.079,265.67z" data-original="#3A484A" class=""/>
	<path style="fill:#3A484A;" d="M256,270.122c-6.663,0-12.929-2.797-17.192-7.674c-2.808-3.213-2.48-8.094,0.734-10.902   c3.213-2.808,8.093-2.48,10.902,0.732c1.327,1.518,3.352,2.39,5.556,2.39c2.204,0,4.228-0.872,5.556-2.39   c2.809-3.213,7.69-3.541,10.902-0.732c3.213,2.808,3.542,7.689,0.733,10.902C268.929,267.325,262.663,270.122,256,270.122z" data-original="#3A484A" class=""/>
</g></g> </svg>
