<?xml version="1.0"?>
<svg xmlns="http://www.w3.org/2000/svg" xmlns:xlink="http://www.w3.org/1999/xlink" version="1.1" id="Capa_1" x="0px" y="0px" viewBox="0 0 512 512" style="enable-background:new 0 0 512 512;" xml:space="preserve" width="512px" height="512px" class=""><g><path style="fill:#3A484A;" d="M256,483.341c-4.268,0-7.726-3.459-7.726-7.726v-87.624c0-4.267,3.458-7.726,7.726-7.726  c4.268,0,7.726,3.459,7.726,7.726v87.624C263.726,479.882,260.267,483.341,256,483.341z" data-original="#3A484A" class=""/><path style="fill:#E75B21" d="M256,0c-16.024,0-29.015,12.991-29.015,29.015V84.79h58.031V29.015C285.015,12.991,272.024,0,256,0z" data-original="#00A5C6" class="active-path" data-old_color="#00A5C6"/><polygon style="fill:#EFEDEE;" points="28.439,104.574 28.439,416.529 483.561,416.529 483.561,104.574 256,75.694 " data-original="#EFEDEE" class=""/><polygon style="fill:#D4D2D3;" points="28.439,104.574 28.439,135.479 28.439,135.479 483.56,135.479 483.561,135.479   483.561,104.574 256,75.695 " data-original="#D4D2D3" class=""/><path style="fill:#E75B21" d="M483.561,46.813H28.439c-9.249,0-16.748,7.498-16.748,16.748v24.266  c0,9.249,7.498,16.748,16.748,16.748h455.122c9.249,0,16.748-7.498,16.748-16.748V63.561  C500.307,54.312,492.81,46.813,483.561,46.813z" data-original="#49C3E0" class="" data-old_color="#49C3E0"/><path style="fill:#3A484A;" d="M95.735,328.002c-2.124,0-4.238-0.871-5.765-2.579c-2.843-3.182-2.568-8.066,0.614-10.91  l106.846-95.47c2.698-2.412,6.71-2.626,9.649-0.518l101.35,72.641l102.214-108.61c2.926-3.108,7.816-3.255,10.922-0.332  c3.108,2.925,3.256,7.814,0.332,10.922L315.049,306.681c-2.653,2.819-6.982,3.24-10.128,0.985l-101.813-72.973l-102.229,91.344  C99.405,327.354,97.566,328.002,95.735,328.002z" data-original="#3A484A" class=""/><circle style="fill:#E75B21" cx="256" cy="486.204" r="25.796" data-original="#49C3E0" class="" data-old_color="#49C3E0"/><path style="fill:#E75B21" d="M266.302,501.698c-14.245,0-25.793-11.547-25.793-25.793c0-4.473,1.14-8.68,3.143-12.348  c-8.011,4.377-13.445,12.877-13.445,22.65C230.207,500.453,241.756,512,256,512c9.771,0,18.272-5.434,22.65-13.445  C274.982,500.559,270.775,501.698,266.302,501.698z" data-original="#00A5C6" class="active-path" data-old_color="#00A5C6"/><circle style="fill:#E75B21" cx="95.735" cy="320.273" r="30.829" data-original="#49C3E0" class="" data-old_color="#49C3E0"/><circle style="fill:#E75B21" cx="202.575" cy="224.806" r="30.829" data-original="#DA5B65" class="" data-old_color="#DA5B65"/><circle style="fill:#E75B21" cx="309.425" cy="301.39" r="30.829" data-original="#FFCD38" class="" data-old_color="#FFCD38"/><circle style="fill:#E75B21" cx="416.265" cy="187.854" r="30.829" data-original="#3AC7B4" class="" data-old_color="#3AC7B4"/></g> </svg>
