<?xml version="1.0"?>
<svg xmlns="http://www.w3.org/2000/svg" xmlns:xlink="http://www.w3.org/1999/xlink" version="1.1" id="Capa_1" x="0px" y="0px" viewBox="0 0 512 512" style="enable-background:new 0 0 512 512;" xml:space="preserve" width="512px" height="512px" class=""><g><path style="fill:#E8E8E8;" d="M493.663,203.803h-232.29c-10.127,0-18.337-8.21-18.337-18.337V37.957  c0-10.127,8.21-18.337,18.337-18.337h232.29C503.79,19.62,512,27.83,512,37.957v147.51C512,195.593,503.79,203.803,493.663,203.803z  " data-original="#E8E8E8" class=""/><g>
	<path style="fill:#404B58;" d="M346.716,77.482H294.52c-4.142,0-7.5-3.357-7.5-7.5s3.358-7.5,7.5-7.5h52.196   c4.142,0,7.5,3.357,7.5,7.5S350.858,77.482,346.716,77.482z" data-original="#404B58"/>
	<path style="fill:#404B58;" d="M346.716,105.73H294.52c-4.142,0-7.5-3.357-7.5-7.5s3.358-7.5,7.5-7.5h52.196   c4.142,0,7.5,3.357,7.5,7.5S350.858,105.73,346.716,105.73z" data-original="#404B58"/>
	<path style="fill:#404B58;" d="M346.716,133.979H294.52c-4.142,0-7.5-3.357-7.5-7.5c0-4.143,3.358-7.5,7.5-7.5h52.196   c4.142,0,7.5,3.357,7.5,7.5C354.216,130.621,350.858,133.979,346.716,133.979z" data-original="#404B58"/>
</g><path style="fill:#E75B21" d="M404.403,126.479h55.977c8.635,0,15.635-7,15.635-15.635V85.617c0-8.635-7-15.635-15.635-15.635  h-55.977c-8.635,0-15.635,7-15.635,15.635v25.227C388.769,119.479,395.769,126.479,404.403,126.479z" data-original="#FDA75F" class="" data-old_color="#e75b21"/><path style="fill:#79C6E4;" d="M298.012,166.377c-12.687,0-22.972,10.285-22.972,22.972c0,5.48,1.926,10.506,5.128,14.455h35.688  c3.202-3.948,5.128-8.975,5.128-14.455C320.984,176.661,310.699,166.377,298.012,166.377z" data-original="#79C6E4" class=""/><path style="fill:#FFE000" d="M377.518,166.377c-12.687,0-22.972,10.285-22.972,22.972c0,5.48,1.926,10.506,5.128,14.455h35.688  c3.202-3.948,5.128-8.975,5.128-14.455C400.49,176.661,390.205,166.377,377.518,166.377z" data-original="#ED718B" class="active-path" data-old_color="#E75B21"/><path style="fill:#FFFFFF;" d="M457.024,166.377c-12.687,0-22.972,10.285-22.972,22.972c0,5.48,1.926,10.506,5.128,14.455h35.688  c3.202-3.948,5.128-8.975,5.128-14.455C479.996,176.661,469.711,166.377,457.024,166.377z" data-original="#FFFFFF" class=""/><path style="fill:#E8E8E8;" d="M462.626,492.38H115.665c-12.466,0-22.571-10.105-22.571-22.571V245.898h392.103v223.911  C485.197,482.275,475.091,492.38,462.626,492.38z" data-original="#E8E8E8" class=""/><path style="fill:#E75B21" d="M335.047,355.672h68.379c10.548,0,19.099-8.551,19.099-19.099v-30.816  c0-10.548-8.551-19.099-19.099-19.099h-68.379c-10.548,0-19.099,8.551-19.099,19.099v30.816  C315.949,347.121,324.5,355.672,335.047,355.672z" data-original="#FDA75F" class="" data-old_color="#e75b21"/><g>
	<path style="fill:#404B58;" d="M248.041,294.158h-92.276c-4.142,0-7.5-3.357-7.5-7.5s3.358-7.5,7.5-7.5h92.276   c4.142,0,7.5,3.357,7.5,7.5S252.183,294.158,248.041,294.158z" data-original="#404B58"/>
	<path style="fill:#404B58;" d="M248.041,328.665h-92.276c-4.142,0-7.5-3.357-7.5-7.5s3.358-7.5,7.5-7.5h92.276   c4.142,0,7.5,3.357,7.5,7.5S252.183,328.665,248.041,328.665z" data-original="#404B58"/>
	<path style="fill:#404B58;" d="M248.041,363.172h-92.276c-4.142,0-7.5-3.357-7.5-7.5s3.358-7.5,7.5-7.5h92.276   c4.142,0,7.5,3.357,7.5,7.5S252.183,363.172,248.041,363.172z" data-original="#404B58"/>
</g><circle style="fill:#79C6E4;" cx="186.98" cy="428.67" r="29.52" data-original="#79C6E4" class=""/><circle style="fill:#FFE000" cx="289.14" cy="428.67" r="29.52" data-original="#ED718B" class="active-path" data-old_color="#E75B21"/><circle style="fill:#FFFFFF;" cx="391.31" cy="428.67" r="29.52" data-original="#FFFFFF" class=""/><rect x="93.09" y="245.9" style="opacity: 0.1;fill:#000000" width="392.1" height="19.1" data-original="#000000" class="" data-old_color="opacity: 0.1#000000"/><path style="fill:#404B58;" d="M462.626,195.161H115.665c-12.466,0-22.571,10.105-22.571,22.571v28.166h392.103v-28.166  C485.197,205.267,475.091,195.161,462.626,195.161z" data-original="#404B58"/><path style="opacity: 0.1;fill:#000000" d="M115.665,195.161c-12.466,0-22.571,10.105-22.571,22.571v211.345h93.522  c11.132,0,20.157-9.025,20.157-20.157V195.161H115.665z" data-original="#000000" class="" data-old_color="opacity: 0.1#000000"/><path style="fill:#E8E8E8;" d="M166.03,408.492H20.157C9.025,408.492,0,399.468,0,388.335V107.91  c0-11.132,9.025-20.157,20.157-20.157H166.03c11.132,0,20.157,9.025,20.157,20.157v280.425  C186.187,399.468,177.163,408.492,166.03,408.492z" data-original="#E8E8E8" class=""/><g>
	<path style="fill:#404B58;" d="M130.197,226.102H55.99c-4.142,0-7.5-3.357-7.5-7.5c0-4.142,3.358-7.5,7.5-7.5h74.208   c4.142,0,7.5,3.358,7.5,7.5C137.697,222.745,134.339,226.102,130.197,226.102z" data-original="#404B58"/>
	<path style="fill:#404B58;" d="M130.197,260.609H55.99c-4.142,0-7.5-3.357-7.5-7.5s3.358-7.5,7.5-7.5h74.208   c4.142,0,7.5,3.357,7.5,7.5S134.339,260.609,130.197,260.609z" data-original="#404B58"/>
	<path style="fill:#404B58;" d="M130.197,295.116H55.99c-4.142,0-7.5-3.357-7.5-7.5s3.358-7.5,7.5-7.5h74.208   c4.142,0,7.5,3.357,7.5,7.5C137.697,291.759,134.339,295.116,130.197,295.116z" data-original="#404B58"/>
</g><path style="fill:#E75B21" d="M58.904,186.981h68.379c10.548,0,19.099-8.551,19.099-19.099v-30.816  c0-10.548-8.551-19.099-19.099-19.099H58.904c-10.548,0-19.099,8.551-19.099,19.099v30.816  C39.805,178.43,48.356,186.981,58.904,186.981z" data-original="#FDA75F" class="" data-old_color="#e75b21"/><circle style="fill:#79C6E4;" cx="97.64" cy="348.76" r="29.52" data-original="#79C6E4" class=""/></g> </svg>
