<?xml version="1.0"?>
<svg xmlns="http://www.w3.org/2000/svg" xmlns:xlink="http://www.w3.org/1999/xlink" version="1.1" id="Capa_1" x="0px" y="0px" viewBox="0 0 512.001 512.001" style="enable-background:new 0 0 512.001 512.001;" xml:space="preserve" width="512px" height="512px" class=""><g><path style="fill:#C76D5F;" d="M380.466,165.198c-2.013-6.004-8.565-9.143-14.53-7.018c-14.815,5.28-48.278,10.393-109.938-11.6  c-89.334-31.865-138.269,46.089-126.314,102.941l18.525,19.662l8.225,10.351l6.023-10.351h190.167l7.523,6.245l3.639-6.245  l18.525-19.662C391.304,209.012,385.487,180.169,380.466,165.198z" data-original="#C76D5F"/><g>
	<polygon style="fill:#AF4E42;" points="360.15,275.43 363.789,269.185 352.626,269.185  " data-original="#AF4E42"/>
	<path style="fill:#AF4E42;" d="M129.686,249.523c-10.628-50.541,26.867-117.751,98.086-109.666   c-53.68,6.469-82.09,59.404-76.509,103.195L129.686,249.523z" data-original="#AF4E42"/>
</g><path style="fill:#E75B21" d="M497.207,241.207h-22.15c-3.508-53.077-25.843-102.496-63.806-140.458  c-37.962-37.962-87.381-60.298-140.457-63.806V14.794C270.792,6.624,264.169,0.001,256,0.001s-14.793,6.623-14.793,14.793v22.15  c-53.077,3.508-102.496,25.843-140.458,63.806c-37.962,37.962-60.298,87.381-63.806,140.458H14.793  C6.623,241.207,0,247.83,0,256.001c0,8.17,6.623,14.793,14.793,14.793h22.15c3.508,53.077,25.843,102.495,63.806,140.457  c37.962,37.963,87.381,60.299,140.458,63.806v22.15c0,8.17,6.623,14.793,14.793,14.793c8.17,0,14.793-6.623,14.793-14.793v-22.15  c53.077-3.508,102.495-25.843,140.457-63.806c37.963-37.962,60.299-87.381,63.806-140.457h22.15c8.17,0,14.793-6.623,14.793-14.793  C512.001,247.83,505.377,241.207,497.207,241.207z M270.792,445.399v-21.077c0-8.17-6.623-14.793-14.793-14.793  s-14.793,6.623-14.793,14.793v21.076c-92.981-7.195-167.411-81.624-174.606-174.606h21.076c8.17,0,14.793-6.623,14.793-14.793  c0-8.17-6.623-14.793-14.793-14.793H66.607c7.196-92.979,81.618-167.41,174.599-174.604v21.076c0,8.17,6.623,14.793,14.793,14.793  s14.793-6.623,14.793-14.793V66.602c92.981,7.195,167.403,81.625,174.599,174.606h-21.07c-8.17,0-14.793,6.623-14.793,14.793  s6.623,14.793,14.793,14.793h21.076C438.204,363.775,363.774,438.205,270.792,445.399z" data-original="#DA5B65" class="active-path" data-old_color="#D1511D"/><path style="fill:#FFC4B0;" d="M363.789,269.185L363.789,269.185c0,0-34.641,11.346-25.42-66.835c0,0-35.682,6.806-82.369,6.806  s-82.369-6.806-82.369-6.806c9.221,78.181-25.42,66.835-25.42,66.835l-7.743,12.115l11.382,14.656  c12.276,44.258,54.249,76.861,104.15,76.861s91.875-32.604,104.15-76.861l12.796-11.398L363.789,269.185z" data-original="#FFC4B0"/><g>
	<path style="fill:#3A484A;" d="M203.976,281.3c-4.267,0-7.726-3.459-7.726-7.726v-8.678c0-4.267,3.459-7.726,7.726-7.726   c4.267,0,7.726,3.459,7.726,7.726v8.678C211.702,277.84,208.243,281.3,203.976,281.3z" data-original="#3A484A"/>
	<path style="fill:#3A484A;" d="M310.085,281.3c-4.267,0-7.726-3.459-7.726-7.726v-8.678c0-4.267,3.459-7.726,7.726-7.726   c4.267,0,7.726,3.459,7.726,7.726v8.678C317.811,277.84,314.352,281.3,310.085,281.3z" data-original="#3A484A"/>
	<path style="fill:#3A484A;" d="M256,287.714c-7.897,0-15.319-3.308-20.359-9.076c-2.808-3.213-2.481-8.093,0.732-10.902   c3.212-2.808,8.093-2.481,10.902,0.732c2.107,2.41,5.287,3.792,8.725,3.792c3.438,0,6.618-1.383,8.725-3.792   c2.808-3.213,7.688-3.541,10.902-0.731c3.213,2.808,3.541,7.689,0.731,10.902C271.318,284.406,263.896,287.714,256,287.714z" data-original="#3A484A"/>
</g><g>
	<path style="fill:#E6B09C" d="M171.261,289.128c-2.411-8.692-3.836-17.769-4.148-27.117c-7.949,10.762-18.903,7.174-18.903,7.174   c0-9.258,1.27-18.23,3.639-26.77c-1.191-0.161-2.403-0.25-3.639-0.25c-14.923,0-27.022,12.097-27.022,27.022   s12.098,27.022,27.022,27.022c1.235,0,2.448-0.091,3.639-0.25c12.191,43.953,53.677,76.395,103.123,76.84   C214.177,360.672,182.317,328.986,171.261,289.128z" data-original="#E6B09C" class=""/>
	<path style="fill:#E6B09C" d="M363.789,242.163c-1.235,0-2.448,0.091-3.639,0.25c2.369,8.54,3.639,17.512,3.639,26.77   s-1.27,18.23-3.639,26.77c1.191,0.161,2.404,0.25,3.639,0.25c14.923,0,27.022-12.097,27.022-27.022   C390.811,254.262,378.712,242.163,363.789,242.163z" data-original="#E6B09C" class=""/>
</g></g> </svg>
