<?xml version="1.0"?>
<svg xmlns="http://www.w3.org/2000/svg" xmlns:xlink="http://www.w3.org/1999/xlink" version="1.1" id="Capa_1" x="0px" y="0px" viewBox="0 0 512 512" style="enable-background:new 0 0 512 512;" xml:space="preserve" width="512px" height="512px" class=""><g><path style="fill:#3C474D;" d="M488.305,60.095H23.695C10.609,60.095,0,70.704,0,83.79V428.21c0,13.086,10.609,23.695,23.695,23.695  h464.61c13.086,0,23.695-10.609,23.695-23.695V83.79C512,70.704,501.391,60.095,488.305,60.095z" data-original="#3C474D" class=""/><rect x="44.992" y="109.468" style="fill:#E75B21" width="422.014" height="293.066" data-original="#FF8C57" class="" data-old_color="#FF8C57"/><circle style="fill:#3AC7B4;" cx="62.408" cy="427.217" r="9.661" data-original="#3AC7B4"/><path style="fill:#C76D5F;" d="M382.423,260.663c0-67.446-56.712-122.318-126.423-122.318c-69.709,0-126.423,54.872-126.423,122.318  v86.404c0,15.909,12.897,28.806,28.806,28.806h195.234c15.909,0,28.806-12.897,28.806-28.806L382.423,260.663L382.423,260.663z" data-original="#C76D5F"/><path style="fill:#AF4E42;" d="M160.483,347.067v-86.404c0-62.386,48.523-114.007,110.97-121.403  c-5.066-0.601-10.222-0.915-15.453-0.915c-69.709,0-126.423,54.872-126.423,122.318v86.404c0,15.909,12.897,28.806,28.806,28.806  h30.905C173.379,375.873,160.483,362.977,160.483,347.067z" data-original="#AF4E42"/><circle style="fill:#E6B09C;" cx="362.428" cy="260.667" r="26.679" data-original="#E6B09C"/><g>
	<path style="fill:#FDF6F1" d="M308.697,349.574h-30.946L256,376.054l14.358,26.48h68.155   C338.512,364.841,308.697,349.574,308.697,349.574z" data-original="#DA5B65" class="active-path" data-old_color="#FBF3EE"/>
	<path style="fill:#FDF6F1" d="M234.249,349.574h-30.946c0,0-29.817,15.267-29.817,52.96h68.155l14.358-26.48L234.249,349.574z" data-original="#DA5B65" class="active-path" data-old_color="#FBF3EE"/>
</g><path style="fill:#EFEDEE;" d="M277.751,349.574c0,0,3.489,34.115-7.394,52.96h-28.715c-10.883-18.844-7.394-52.96-7.394-52.96  H277.751z" data-original="#EFEDEE"/><path style="fill:#FFC4B0;" d="M362.422,260.178c-0.215-44.574-46.716-74.324-87.312-55.916c-3.067,1.391-5.845,2.836-8.275,4.209  c-6.728,3.805-14.941,3.805-21.67,0c-2.429-1.374-5.209-2.819-8.275-4.209c-40.596-18.408-87.096,11.342-87.312,55.916  c-0.001,0.162-0.001,0.323-0.001,0.485c0,56.509,47.647,102.319,106.423,102.319s106.423-45.809,106.423-102.319  C362.423,260.501,362.422,260.34,362.422,260.178z" data-original="#FFC4B0"/><path style="fill:#E6B09C;" d="M170.181,260.663c0-0.162,0-0.323,0.001-0.485c0.152-31.599,23.566-55.741,51.647-60.565  c-27.683-4.783-55.131,10.287-66.622,35.124c-1.609-0.488-3.468-0.753-5.63-0.753c-14.735,0-26.679,11.945-26.679,26.679  c0,14.734,11.945,26.679,26.679,26.679c1.301,0,2.49-0.098,3.584-0.277c12.11,43.711,53.559,75.915,102.838,75.915  c3.476,0,6.911-0.166,10.302-0.479C212.361,357.52,170.181,313.83,170.181,260.663z" data-original="#E6B09C"/><g>
	<path style="fill:#3A484A" d="M208.654,272.722c-4.267,0-7.726-3.459-7.726-7.726v-8.569c0-4.267,3.459-7.726,7.726-7.726   s7.726,3.459,7.726,7.726v8.569C216.38,269.263,212.922,272.722,208.654,272.722z" data-original="#3A484A" class=""/>
	<path style="fill:#3A484A" d="M303.345,272.722c-4.267,0-7.726-3.459-7.726-7.726v-8.569c0-4.267,3.459-7.726,7.726-7.726   s7.726,3.459,7.726,7.726v8.569C311.071,269.263,307.613,272.722,303.345,272.722z" data-original="#3A484A" class=""/>
	<path style="fill:#3A484A" d="M256,279.055c-7.825,0-15.179-3.278-20.175-8.993c-2.808-3.213-2.481-8.094,0.732-10.902   c3.213-2.807,8.093-2.481,10.902,0.732c2.061,2.358,5.174,3.711,8.54,3.711c3.367,0,6.479-1.353,8.541-3.711   c2.809-3.213,7.688-3.54,10.902-0.731c3.212,2.808,3.54,7.689,0.731,10.902C271.178,275.777,263.825,279.055,256,279.055z" data-original="#3A484A" class=""/>
</g></g> </svg>
