<?xml version="1.0"?>
<svg xmlns="http://www.w3.org/2000/svg" xmlns:xlink="http://www.w3.org/1999/xlink" version="1.1" id="Capa_1" x="0px" y="0px" viewBox="0 0 512 512" style="enable-background:new 0 0 512 512;" xml:space="preserve" width="512px" height="512px" class=""><g><path style="fill:#EEECED;" d="M356.928,328.919h-31.928l0,0H187.001l0,0h-31.928c0,0-89.965,61.442-76.91,183.081h46.046  l7.726-8.137l7.726,8.137h89.555L256,489.851L282.785,512h89.555l7.726-7.622l7.726,7.622h46.046  C446.893,390.361,356.928,328.919,356.928,328.919z" data-original="#EEECED" class=""/><g>
	<path style="fill:#D3D1D2;" d="M124.208,512v-70.801c0-4.268,3.459-7.726,7.726-7.726c4.267,0,7.726,3.458,7.726,7.726V512H124.208   z" data-original="#D3D1D2" class=""/>
	<path style="fill:#D3D1D2;" d="M372.34,512v-70.801c0-4.268,3.459-7.726,7.726-7.726c4.267,0,7.726,3.458,7.726,7.726V512H372.34z" data-original="#D3D1D2" class=""/>
</g><polygon style="fill:#E75B21" points="282.785,512 274.283,437.016 237.717,437.016 229.215,512 " data-original="#BB3649" class="" data-old_color="#e75b21"/><path style="fill:#E75B21" d="M279.77,423.155l-5.669-39.174h-36.099l-5.774,39.174c-1.478,5.328,0.763,10.989,5.488,13.861  l11.866,7.212c3.942,2.396,8.893,2.396,12.835,0l11.866-7.212C279.007,434.144,281.249,428.482,279.77,423.155z" data-original="#D55C64" class="" data-old_color="#e75b21"/><g>
	<path style="fill:#FFFCFD;" d="M200.027,363.482l-25.095,23.095l13.943,31.471c4.132,9.326,16.19,11.855,23.722,4.977   l22.707-20.741L200.027,363.482z" data-original="#FFFCFD" class=""/>
	<path style="fill:#FFFCFD;" d="M311.973,363.482l25.095,23.095l-13.944,31.471c-4.132,9.326-16.19,11.855-23.722,4.977   l-22.707-20.741L311.973,363.482z" data-original="#FFFCFD" class=""/>
</g><path style="fill:#343E40;" d="M474.021,59.649c-1.874-10.116-10.719-17.457-21.007-17.346C400.304,42.867,366.346,0,256,0  C132.447,0,31.93,96.748,31.93,215.667l30.006,26.788l194.117,30.033l192.959-23.806l20.757-33.014  C486.128,147.953,479.4,88.677,474.021,59.649z" data-original="#343E40" class=""/><path style="fill:#293234;" d="M74.643,235.27c0-121.253,93.834-221.365,213.892-233.93C278.466,0.483,267.664,0,256,0  C132.447,0,31.93,96.748,31.93,215.667l30.006,26.788l24.802,3.837L74.643,235.27z" data-original="#293234" class=""/><path style="fill:#FBC4AC;" d="M451.642,227.949l-0.008,0.006v-0.001l-1.813-0.523c0,0-60.643-15.305-60.643-85.781  c0,0-56.199,14.423-133.178,14.423S122.822,141.65,122.822,141.65c0,70.476-60.643,85.781-60.643,85.781l-1.808,0.698l-6.496,21.265  l14.637,21.265v-0.001c24.558,76.805,99.2,132.667,187.488,132.667s162.925-55.863,187.483-132.669l19.89-16.872L451.642,227.949z" data-original="#FBC4AC" class=""/><path style="fill:#3A484A;" d="M279.596,260.291c-3.426-2.542-8.266-1.825-10.809,1.602c-3.05,4.111-7.71,6.469-12.784,6.469  c-5.074,0-9.734-2.358-12.784-6.469c-2.542-3.427-7.381-4.146-10.809-1.602c-3.427,2.543-4.144,7.381-1.602,10.809  c5.906,7.962,15.325,12.716,25.194,12.716c9.869,0,19.288-4.753,25.194-12.716C283.741,267.672,283.024,262.833,279.596,260.291z" data-original="#3A484A" class=""/><path style="fill:#E3B098" d="M158.113,268.362h-30.455c-4.267,0-7.726,3.459-7.726,7.726c0,4.267,3.459,7.726,7.726,7.726h30.455  c4.267,0,7.726-3.459,7.726-7.726C165.84,271.822,162.38,268.362,158.113,268.362z" data-original="#FF8087" class="active-path" data-old_color="#FF8087"/><g>
	<path style="fill:#3A484A;" d="M142.885,252.495c4.267,0,7.726-3.459,7.726-7.726v-22.657c0-4.267-3.459-7.726-7.726-7.726   s-7.726,3.459-7.726,7.726v22.657C135.159,249.036,138.618,252.495,142.885,252.495z" data-original="#3A484A" class=""/>
	<path style="fill:#3A484A;" d="M369.122,252.495c4.267,0,7.726-3.459,7.726-7.726v-22.657c0-4.267-3.459-7.726-7.726-7.726   s-7.726,3.459-7.726,7.726v22.657C361.396,249.036,364.855,252.495,369.122,252.495z" data-original="#3A484A" class=""/>
</g><path style="fill:#E3B098" d="M384.343,268.362h-30.455c-4.267,0-7.726,3.459-7.726,7.726c0,4.267,3.459,7.726,7.726,7.726h30.455  c4.267,0,7.726-3.459,7.726-7.726C392.069,271.822,388.61,268.362,384.343,268.362z" data-original="#FF8087" class="active-path" data-old_color="#FF8087"/><g>
	<path style="fill:#E3B098" d="M451.583,228.69c-1.039,14.507-3.813,28.555-8.102,41.97c2.071,0.301,4.186,0.466,6.34,0.466   c24.131,0,43.694-19.562,43.694-43.694c0-22.566-17.108-41.133-39.061-43.447c-0.252,21.917-2.811,43.965-2.811,43.965   L451.583,228.69z" data-original="#E3B098" class=""/>
	<path style="fill:#E3B098" d="M60.358,227.949c0,0-2.558-22.047-2.811-43.965c-21.954,2.314-39.061,20.881-39.061,43.447   c0,24.131,19.562,43.694,43.694,43.694c2.151,0,4.264-0.164,6.331-0.465v-0.001C91.41,342.275,157.854,395.672,238.3,402.563   c-68.966-31.898-122.041-90.313-144.778-161.419v0.001l0,0c-2.693-8.42-4.961-17.018-6.782-25.769   c-13.015,9.14-24.562,12.055-24.562,12.055l-1.806,0.697L60.358,227.949z" data-original="#E3B098" class=""/>
</g></g> </svg>
